<svg xmlns="http://www.w3.org/2000/svg" xmlns:svg="http://www.w3.org/2000/svg" xmlns:xlink="http://www.w3.org/1999/xlink" id="svg2410" width="32" height="32" version="1.0"><metadata id="metadata39"/><defs id="defs2412"><linearGradient id="XMLID_1_" x1="125.458" x2="125.458" y1="306.082" y2="173" gradientUnits="userSpaceOnUse"><stop style="stop-color:#b6c5d4;stop-opacity:1" id="stop2194" offset="0"/><stop style="stop-color:#e4ebf2;stop-opacity:1" id="stop2198" offset="1"/></linearGradient><linearGradient id="linearGradient5254" x1="125.458" x2="125.458" y1="306.082" y2="173" gradientTransform="matrix(0.690484,0,0,0.568759,350.5161,267.5496)" gradientUnits="userSpaceOnUse" xlink:href="#XMLID_1_"/><linearGradient id="XMLID_4_" x1="127.588" x2="127.588" y1="238.288" y2="256.012" gradientTransform="matrix(1.156702,0,0,1.156702,297.626,127.6626)" gradientUnits="userSpaceOnUse"><stop style="stop-color:#ff7b00;stop-opacity:1" id="stop2218" offset="0"/><stop style="stop-color:#ffa947;stop-opacity:1" id="stop2220" offset=".972"/><stop style="stop-color:#ff9f31;stop-opacity:1" id="stop2222" offset="1"/></linearGradient><linearGradient id="linearGradient7835" x1="77.544" x2="77.544" y1="217.941" y2="259.361" gradientTransform="matrix(1.156702,0,0,1.156702,297.626,127.6626)" gradientUnits="userSpaceOnUse" xlink:href="#XMLID_5_"/><linearGradient id="XMLID_6_" x1="80.47" x2="80.47" y1="223.72" y2="254.085" gradientTransform="matrix(1.156702,0,0,1.156702,297.626,127.6626)" gradientUnits="userSpaceOnUse"><stop style="stop-color:black;stop-opacity:1" id="stop2252" offset="0"/><stop style="stop-color:black;stop-opacity:1" id="stop2254" offset=".409"/><stop style="stop-color:#4c4c4c;stop-opacity:1" id="stop2256" offset=".909"/><stop style="stop-color:#363636;stop-opacity:1" id="stop2258" offset="1"/></linearGradient><linearGradient id="XMLID_8_" x1="78.344" x2="78.344" y1="217.941" y2="230.985" gradientTransform="matrix(1.156702,0,0,1.156702,297.626,127.6626)" gradientUnits="userSpaceOnUse"><stop style="stop-color:black;stop-opacity:1" id="stop2288" offset="0"/><stop style="stop-color:#636363;stop-opacity:1" id="stop2290" offset="1"/></linearGradient><linearGradient id="XMLID_10_" x1="121.349" x2="121.349" y1="223.72" y2="231.766" gradientTransform="matrix(0.935115,0,0,0.935115,7.14167,-28.55897)" gradientUnits="userSpaceOnUse"><stop style="stop-color:#545454;stop-opacity:1" id="stop2342" offset="0"/><stop style="stop-color:#666;stop-opacity:1" id="stop2344" offset=".349"/><stop style="stop-color:#7d7d7d;stop-opacity:1" id="stop2346" offset="1"/></linearGradient><linearGradient id="linearGradient14383" x1="121.349" x2="121.349" y1="223.72" y2="231.766" gradientTransform="matrix(0.877218,0,0,0.877218,291.7704,136.1982)" gradientUnits="userSpaceOnUse" spreadMethod="reflect" xlink:href="#XMLID_10_"/><linearGradient id="XMLID_5_" x1="77.544" x2="77.544" y1="217.941" y2="259.361" gradientTransform="matrix(0.935115,0,0,0.935115,-293.5855,-9.599522)" gradientUnits="userSpaceOnUse"><stop style="stop-color:black;stop-opacity:1" id="stop2243" offset="0"/><stop style="stop-color:black;stop-opacity:1" id="stop2245" offset=".511"/><stop style="stop-color:#454545;stop-opacity:1" id="stop2247" offset="1"/></linearGradient><linearGradient id="linearGradient7833" x1="77.544" x2="77.544" y1="217.941" y2="259.361" gradientTransform="matrix(1.156702,0,0,1.156702,297.626,127.6626)" gradientUnits="userSpaceOnUse" xlink:href="#XMLID_5_"/></defs><g id="g3831" transform="matrix(0.4846622,0,0,0.4846622,30.6446,11.73206)"><path id="path3020" d="m -53.847507,45.507499 c 0,-8.203905 10.547404,-14.854484 23.558285,-14.854484 13.010881,1e-6 23.5582839,6.65058 23.558284,14.854485 l -23.558285,0 z" transform="matrix(1.2089971,0,0,2.1913072,6.403486,-57.902219)" style="fill:#000;fill-opacity:1;fill-rule:nonzero;stroke:none"/><g id="g3825" transform="translate(4.6635639,-9.198074)"><path style="fill:#fff;fill-opacity:1;fill-rule:nonzero;stroke:none" id="path3051" d="m -18.87385,30.58662 c 0,10.469059 -8.486849,18.955908 -18.955908,18.955908 -10.469058,0 -18.955908,-8.486849 -18.955908,-18.955908 0,-10.469058 8.48685,-18.955907 18.955908,-18.955907 10.469059,0 18.955908,8.486849 18.955908,18.955907 z" transform="matrix(0.94710422,0,0,0.94710422,0.94906375,-24.22732)"/><g id="g3821" transform="translate(-16.576162,1.723263)"><path d="m -18.303506,-15.441668 c 10.195453,0 18.459484,8.2646996 18.459484,18.460128 0,10.194777 -8.264031,18.459477 -18.459484,18.459477 -10.194801,0 -18.459468,-8.2647 -18.459468,-18.459477 0,-10.1954284 8.264667,-18.460128 18.459468,-18.460128 z m 0,1.519174 c -9.355847,0 -16.940334,7.5844555 -16.940334,16.940954 0,9.355847 7.584487,16.940302 16.940334,16.940302 9.356189,0 16.940351,-7.584455 16.940351,-16.940302 0,-9.3561723 -7.584162,-16.940954 -16.940351,-16.940954 z" style="fill:#000;fill-opacity:1" id="use12731"/><path id="use12733" d="m -22.598439,-6.863022 0,13.79937 c 0.213818,-0.156891 0.446847,-0.305058 0.699709,-0.442705 3.51169,-1.913197 4.828846,-3.643572 4.773795,-6.817529 -0.07266,-4.2191131 -2.782209,-5.9591099 -5.473504,-6.539136 z m -1.609722,-4.115633 1.609722,0 0,2.6032269 c 1.43047,-0.3220193 3.263933,-0.5275115 5.588416,-0.5275115 6.215478,0 10.918525,1.9861797 11.987623,7.5902446 0.994509,5.214609 -2.049214,6.782057 -6.404327,8.015337 -3.440314,0.974049 -9.447087,1.212811 -11.056808,3.225248 -1.610357,2.012356 -1.679817,4.564454 -1.089565,6.845744 -0.831591,-2.090557 -1.267879,-3.45602 -1.267879,-5.120833 0,-0.902616 0.161956,-1.90227 0.632818,-2.832122 l 0,-15.9045236 c -0.598879,-0.038081 -1.16704,-0.028133 -1.672478,0.013781 0.425728,-0.2964143 0.975966,-0.5832063 1.672478,-0.8389299 l 0,-3.0696615 z"/></g></g></g></svg>